<?xml version="1.0" encoding="iso-8859-1"?><!-- Generator: Adobe Illustrator 16.0.0, SVG Export Plug-In . SVG Version: 6.00 Build 0) --><!DOCTYPE svg PUBLIC "-//W3C//DTD SVG 1.1//EN" "http://www.w3.org/Graphics/SVG/1.1/DTD/svg11.dtd"><svg version="1.1" id="Layer_1" xmlns:sketch="http://www.bohemiancoding.com/sketch/ns" xmlns="http://www.w3.org/2000/svg" xmlns:xlink="http://www.w3.org/1999/xlink" x="0px" y="0px" width="329.254px" height="329.256px" viewBox="0.847 0.876 329.254 329.256" style="enable-background:new 0.847 0.876 329.254 329.256;" xml:space="preserve"><title>Litecoin</title><description>Created with Sketch (http://www.bohemiancoding.com/sketch)</description><g id="Page-1" sketch:type="MSPage"><g id="Imported-Layers" transform="translate(1.000000, 1.000000)" sketch:type="MSLayerGroup"><path id="Fill-1" sketch:type="MSShapeGroup" style="fill:#BEBEBE;" d="M329.102,164.503c0,90.922-73.705,164.629-164.626,164.629	c-90.922,0-164.628-73.707-164.628-164.629c0-90.921,73.706-164.627,164.628-164.627	C255.396-0.124,329.102,73.582,329.102,164.503"/><path id="Fill-2" sketch:type="MSShapeGroup" style="fill:#BEBEBE;" d="M294.15,164.505c0,71.613-58.057,129.675-129.674,129.675	c-71.616,0-129.677-58.062-129.677-129.675c0-71.619,58.061-129.677,129.677-129.677C236.094,34.828,294.15,92.885,294.15,164.505	"/><path id="Fill-3" sketch:type="MSShapeGroup" style="fill:#FFFFFF;" d="M154.854,208.482l10.693-40.264l25.316-9.249l6.297-23.663	l-0.215-0.587l-24.92,9.104l17.955-67.608h-50.921l-23.481,88.23l-19.605,7.162l-6.478,24.395l19.59-7.156l-13.839,51.998h135.521	l8.688-32.362H154.854"/></g></g></svg>